<?xml version="1.0" standalone="no"?>
<!DOCTYPE svg PUBLIC "-//W3C//DTD SVG 20010904//EN"
 "http://www.w3.org/TR/2001/REC-SVG-20010904/DTD/svg10.dtd">
<svg version="1.0" xmlns="http://www.w3.org/2000/svg"
 width="1152.000000pt" height="648.000000pt" viewBox="0 0 1152.000000 648.000000"
 preserveAspectRatio="xMidYMid meet">

<g transform="translate(0.000000,648.000000) scale(0.100000,-0.100000)"
fill="#000000" stroke="none">
<path d="M420 5160 l0 -810 180 0 180 0 2 313 3 312 363 3 362 2 0 150 0 150
-365 0 -365 0 2 193 3 192 373 3 372 2 0 150 0 150 -555 0 -555 0 0 -810z"/>
<path d="M2290 5526 c-206 -40 -363 -139 -471 -297 -64 -94 -83 -165 -83 -304
0 -139 19 -209 83 -304 113 -166 286 -267 509 -299 107 -15 118 -15 237 5 106
17 139 27 222 69 176 87 309 247 344 411 17 86 6 244 -22 313 -32 77 -87 156
-155 223 -72 70 -227 151 -329 172 -101 21 -258 27 -335 11z m321 -313 c83
-41 143 -102 171 -173 61 -157 -9 -323 -170 -402 -63 -31 -72 -33 -177 -32
-99 0 -116 3 -172 28 -73 33 -144 104 -175 173 -17 38 -20 61 -16 133 4 77 8
94 37 141 40 66 102 116 178 146 49 20 74 23 159 20 90 -2 107 -6 165 -34z"/>
<path d="M6540 5530 c-88 -11 -168 -43 -230 -92 -28 -22 -53 -39 -55 -36 -2 2
-5 24 -7 48 l-3 45 -168 3 -167 2 0 -575 0 -575 168 2 167 3 2 340 c1 357 4
399 29 447 47 91 168 141 283 117 70 -14 114 -44 143 -94 23 -39 23 -46 28
-425 l5 -385 167 -3 166 -2 4 367 c4 403 5 412 66 476 36 38 65 52 135 67 122
25 229 -25 266 -125 20 -53 21 -75 21 -420 l0 -365 165 0 165 0 0 408 c0 429
-2 448 -48 538 -31 59 -90 123 -150 161 -110 71 -288 99 -428 68 -101 -22
-153 -47 -213 -101 -27 -24 -53 -44 -58 -44 -5 0 -25 16 -43 35 -89 92 -242
135 -410 115z"/>
<path d="M4085 5523 c-140 -16 -269 -85 -311 -165 -8 -16 -21 -28 -29 -28 -12
0 -15 17 -15 85 l0 85 -165 0 -165 0 0 -575 0 -575 164 0 165 0 3 313 3 312
30 60 c19 38 45 71 72 91 55 42 160 74 240 74 l63 0 0 165 c0 126 -3 165 -12
164 -7 -1 -26 -4 -43 -6z"/>
<path d="M4495 5500 l-160 -5 -3 -360 c-3 -490 9 -555 128 -675 73 -73 159
-115 283 -136 90 -16 103 -16 196 -1 109 18 194 54 256 108 20 18 38 30 40 27
2 -2 6 -26 8 -53 l5 -50 166 -3 166 -2 0 575 0 575 -167 -2 -168 -3 -2 -350
-3 -350 -33 -65 c-26 -53 -41 -70 -84 -96 -75 -45 -160 -61 -237 -45 -70 15
-110 33 -149 70 -63 57 -62 51 -65 461 -2 206 -6 377 -10 380 -4 3 -79 3 -167
0z"/>
<path d="M7385 3881 c-76 -48 -105 -91 -105 -156 0 -104 85 -178 204 -177 71
1 100 10 144 47 96 81 80 218 -33 282 -53 30 -165 32 -210 4z"/>
<path d="M1050 3875 c-292 -51 -551 -231 -671 -467 -65 -129 -82 -216 -77
-393 5 -153 20 -213 80 -328 100 -191 298 -354 515 -425 160 -53 415 -72 568
-43 222 43 423 150 555 299 40 45 48 59 38 68 -15 15 -274 144 -288 144 -6 0
-32 -22 -58 -49 -125 -129 -326 -189 -547 -162 -192 23 -337 106 -430 247 -69
103 -92 227 -69 377 17 116 52 185 139 272 110 111 232 161 415 172 199 11
369 -46 487 -164 l62 -62 143 73 c82 41 144 79 146 88 5 24 -97 128 -182 187
-129 89 -280 149 -431 170 -95 14 -303 12 -395 -4z"/>
<path d="M5398 3858 c-8 -7 -30 -35 -48 -63 -19 -27 -60 -89 -92 -137 -32 -48
-58 -90 -58 -93 0 -3 71 -5 158 -5 l159 0 136 147 c76 80 137 150 137 155 0
14 -374 10 -392 -4z"/>
<path d="M2325 3848 c-3 -7 -4 -371 -3 -808 l3 -795 165 0 165 0 5 360 c5 352
6 361 28 408 31 62 79 100 161 126 96 30 168 26 258 -15 45 -20 99 -87 112
-139 7 -28 11 -172 11 -394 l0 -351 165 0 165 0 0 408 c0 441 -1 452 -57 554
-56 103 -184 187 -326 214 -93 18 -155 18 -247 -2 -96 -20 -153 -45 -212 -95
-26 -21 -49 -39 -52 -39 -3 0 -7 129 -8 288 l-3 287 -163 3 c-124 2 -164 0
-167 -10z"/>
<path d="M6729 3715 c-5 -5 -158 -47 -254 -70 l-50 -11 -5 -120 -5 -119 -112
-3 -113 -3 0 -133 c0 -105 3 -135 14 -139 7 -3 54 -6 102 -6 49 0 95 0 102 -1
9 0 12 -61 12 -268 0 -151 5 -294 11 -327 27 -148 108 -230 265 -270 71 -17
360 -22 366 -5 2 5 2 66 0 135 l-3 125 -97 0 c-113 0 -175 22 -192 65 -16 41
-13 545 3 546 6 0 74 0 149 -1 l137 -1 3 131 c2 73 1 136 -2 141 -3 5 -71 10
-150 11 l-145 3 -5 159 c-5 145 -12 181 -31 161z"/>
<path d="M5319 3425 c-3 -2 -38 -9 -79 -16 -88 -13 -211 -63 -279 -113 -66
-49 -150 -141 -183 -202 -91 -169 -88 -403 8 -566 122 -210 348 -321 654 -321
226 0 390 57 520 179 l65 62 -136 67 -136 68 -48 -36 c-66 -51 -156 -77 -264
-77 -170 0 -296 59 -352 164 -20 40 -22 48 -9 56 8 5 226 9 504 10 269 0 492
3 495 6 3 3 8 41 9 83 7 136 -33 272 -107 371 -47 62 -55 71 -116 119 -84 66
-177 109 -290 132 -87 17 -245 26 -256 14z m256 -295 c33 -15 74 -39 92 -54
35 -30 89 -129 78 -145 -9 -15 -671 -15 -680 -1 -10 16 34 98 74 137 101 100
294 128 436 63z"/>
<path d="M8461 3414 c-184 -33 -325 -113 -425 -241 -77 -98 -112 -190 -123
-323 -9 -114 28 -256 89 -347 118 -174 306 -273 553 -292 215 -16 386 20 521
108 68 44 148 121 137 132 -5 5 -64 35 -132 69 l-125 61 -25 -21 c-14 -11 -55
-35 -90 -52 -55 -27 -78 -32 -162 -36 -180 -9 -301 37 -373 141 -64 92 -93 87
480 87 l493 0 7 36 c9 48 -1 209 -16 254 -58 177 -210 331 -392 396 -118 42
-280 53 -417 28z m304 -275 c65 -24 134 -83 165 -142 42 -80 55 -77 -324 -77
-184 0 -337 4 -340 8 -8 14 34 96 67 130 100 103 281 137 432 81z"/>
<path d="M10165 3418 c-79 -15 -174 -58 -222 -100 -25 -21 -49 -36 -54 -33 -5
4 -9 28 -9 56 l0 49 -165 0 -165 0 0 -575 0 -575 164 0 165 0 4 353 c4 388 6
404 64 468 47 52 95 76 182 91 137 23 260 -32 307 -139 14 -33 17 -90 21 -403
l4 -365 165 0 165 0 -1 393 c0 215 -2 404 -6 420 -41 191 -169 310 -387 361
-55 13 -161 12 -232 -1z"/>
<path d="M4433 3385 c-34 -13 -74 -32 -90 -41 -32 -21 -103 -93 -103 -106 0
-4 -7 -8 -15 -8 -12 0 -15 16 -15 80 l0 80 -167 -2 -168 -3 0 -570 0 -570 165
0 165 0 5 320 c5 347 6 354 66 418 61 66 135 96 259 106 l80 6 3 158 3 157
-63 0 c-41 -1 -84 -9 -125 -25z"/>
<path d="M7320 2815 l0 -575 165 0 165 0 0 575 0 575 -165 0 -165 0 0 -575z"/>
<path d="M3915 1691 c-71 -11 -186 -54 -258 -97 -96 -58 -215 -184 -259 -274
-20 -41 -41 -90 -47 -109 -15 -45 -14 -255 1 -300 74 -229 265 -402 516 -468
49 -12 106 -17 212 -17 155 1 224 13 326 60 28 13 56 24 62 24 7 0 12 5 12 10
0 31 57 -1 143 -81 23 -21 47 -39 52 -39 6 0 27 14 48 31 l37 30 -75 62 c-40
34 -74 69 -74 77 -1 8 15 31 35 50 66 64 120 156 156 265 21 65 16 248 -9 322
-19 54 -67 149 -83 163 -3 3 -18 20 -32 38 -40 48 -145 135 -203 167 -27 15
-86 41 -130 57 -73 27 -94 30 -230 33 -82 2 -172 0 -200 -4z m325 -111 c79
-16 206 -81 268 -135 120 -107 182 -235 182 -379 0 -122 -30 -210 -98 -296
-53 -66 -58 -70 -83 -70 -22 0 -129 75 -129 91 0 4 -8 10 -17 14 -10 3 -47 33
-83 66 -89 83 -91 84 -133 51 -20 -15 -36 -30 -37 -33 0 -7 74 -76 135 -127
129 -106 154 -128 154 -139 1 -19 -60 -50 -144 -74 -156 -44 -342 -24 -493 51
-93 46 -199 151 -245 242 -57 114 -68 199 -43 318 28 135 103 241 231 328 68
46 104 61 245 101 43 12 216 7 290 -9z"/>
<path d="M432 1677 c-9 -11 -12 -157 -10 -623 l3 -609 290 -3 c371 -4 473 9
595 76 155 85 264 211 311 362 27 84 29 256 5 347 -57 215 -251 390 -493 444
-27 6 -192 13 -368 16 -274 4 -323 3 -333 -10z m680 -112 c181 -38 316 -153
385 -329 34 -87 33 -253 -1 -348 -58 -158 -188 -276 -357 -324 -64 -19 -545
-33 -573 -17 -15 8 -17 52 -16 506 0 273 3 503 6 512 5 13 40 15 248 15 170 0
261 -5 308 -15z"/>
<path d="M6657 1683 c-9 -2 -47 -48 -84 -101 -37 -53 -72 -100 -78 -104 -5 -4
18 -8 51 -8 61 0 62 1 98 45 20 24 42 50 49 57 7 7 30 34 51 61 l38 47 -40 0
c-22 0 -46 2 -54 4 -7 2 -21 2 -31 -1z"/>
<path d="M7315 1680 l-40 -5 0 -615 0 -615 54 0 54 0 3 78 c1 43 5 81 8 84 3
3 29 -17 58 -45 116 -108 191 -136 368 -136 112 0 132 3 197 28 72 27 171 90
205 129 87 102 118 179 118 296 0 120 -18 172 -92 267 -113 145 -312 221 -509
194 -45 -6 -100 -19 -123 -27 -55 -22 -140 -78 -169 -112 -12 -15 -30 -30 -40
-34 -16 -6 -17 11 -17 248 0 286 3 276 -75 265z m641 -457 c65 -21 141 -71
181 -116 110 -126 113 -326 6 -442 -43 -47 -103 -89 -163 -116 -48 -21 -70
-24 -175 -24 -114 0 -123 2 -187 32 -84 40 -158 108 -195 180 -25 50 -28 66
-27 147 0 74 5 100 24 141 41 84 132 161 239 200 54 20 236 19 297 -2z"/>
<path d="M6510 1341 c-195 -22 -370 -144 -421 -296 -7 -22 -17 -44 -21 -50
-14 -16 -9 -197 7 -243 53 -152 155 -247 330 -308 39 -14 82 -17 195 -17 131
0 152 3 213 26 83 31 156 77 197 124 17 19 30 36 28 38 -2 1 -24 14 -50 28
-45 25 -48 25 -60 8 -27 -38 -112 -91 -174 -111 -161 -49 -354 -13 -466 88
-64 58 -114 151 -101 190 4 9 103 12 453 12 l449 0 6 33 c15 81 -40 231 -121
325 -96 113 -279 173 -464 153z m264 -134 c100 -48 181 -151 188 -237 l3 -35
-390 0 -390 0 2 29 c2 33 45 120 77 155 29 33 113 86 166 105 34 12 74 15 165
13 108 -2 126 -5 179 -30z"/>
<path d="M8915 1340 c-185 -22 -335 -121 -408 -269 -31 -64 -32 -70 -32 -191
0 -119 2 -128 30 -185 58 -116 168 -204 315 -251 67 -22 291 -25 358 -5 80 23
172 73 225 123 l52 48 -31 19 c-61 37 -70 36 -127 -13 -83 -74 -137 -90 -293
-91 l-130 0 -76 38 c-42 21 -92 53 -111 71 -46 45 -86 114 -89 156 l-3 35 450
5 c248 3 451 7 453 8 1 1 2 30 2 65 -1 143 -93 295 -225 372 -92 54 -237 80
-360 65z m264 -133 c71 -36 109 -69 147 -126 34 -52 60 -123 50 -140 -8 -13
-772 -16 -779 -3 -24 40 61 179 143 234 87 58 128 68 265 65 108 -2 125 -5
174 -30z"/>
<path d="M10045 1336 c-101 -19 -159 -41 -224 -86 -98 -66 -164 -155 -190
-255 -18 -67 -13 -183 10 -256 23 -74 52 -115 138 -192 169 -154 516 -167 706
-27 50 37 115 104 115 118 0 5 -19 17 -43 29 l-43 21 -54 -51 c-80 -74 -163
-109 -277 -115 -155 -8 -261 32 -362 138 -87 91 -111 237 -57 355 32 70 71
115 141 160 84 54 141 68 268 64 103 -4 118 -7 178 -36 38 -19 84 -52 108 -78
23 -25 44 -45 46 -45 18 0 85 37 85 47 0 6 -23 36 -51 67 -105 115 -314 175
-494 142z"/>
<path d="M1867 1322 l-48 -3 3 -322 c3 -305 4 -324 25 -369 69 -151 243 -229
445 -201 92 13 158 43 218 99 26 24 50 41 53 37 4 -3 7 -33 7 -65 l0 -58 60 0
60 0 0 440 0 440 -60 0 -60 0 0 -272 c0 -325 -5 -352 -86 -434 -39 -39 -67
-56 -115 -73 -84 -28 -198 -29 -273 -1 -65 25 -129 90 -145 146 -7 24 -11 156
-11 335 0 229 -3 298 -12 300 -7 2 -35 3 -61 1z"/>
<path d="M5004 1307 c-3 -8 -4 -154 -2 -323 l3 -309 26 -55 c15 -30 43 -72 64
-92 140 -141 461 -142 596 -2 52 53 69 43 69 -42 l0 -45 58 3 57 3 0 435 0
435 -57 3 -58 3 0 -250 c0 -262 -7 -316 -48 -397 -51 -99 -158 -154 -303 -154
-92 0 -153 19 -207 66 -81 69 -93 136 -91 489 l2 240 -52 3 c-38 2 -53 -1 -57
-11z"/>
</g>
</svg>
